<svg xmlns="http://www.w3.org/2000/svg" width="897.8" height="496.9" viewBox="0 0 897.8 496.9"><style>.st0{fill:#231f20}</style><path class="st0" d="M20 458.9l.3.3 15.3 36.5-.3.3h-5l-.3-.3-3.6-9.1H9.2l-3.6 9.1-.4.3H.3l-.3-.4 15.2-36.5.3-.3H20zm-8.6 22.7h12.8l-6.4-15.9-6.4 15.9zM52.6 458.9c7.7 0 13 4.1 13 11.1 0 5.2-2.9 8.6-7.4 10.2l11.3 15.4-.3.3h-5.8l-.3-.3-10.7-14.5h-5.3v14.5l-.3.3h-4.3l-.3-.3v-36.5l.3-.3h10.1zm-5.5 17.3h5.4c4.4 0 7.5-2.1 7.5-6.2s-3-6.2-7.4-6.2h-5.5v12.4zM109.8 496.2h-.3l-4.4-3.7c-3.4 2.8-7.7 4.4-12.4 4.4-10.9 0-19.8-8.8-19.8-19.5s8.9-19.5 19.8-19.5 19.8 8.8 19.8 19.5c0 4.3-1.5 8.4-4 11.6l4.2 3.5v.3l-2.9 3.4zm-9.8-14.3l4.2 3.5c1.7-2.2 2.6-5 2.6-8 0-7.9-6.3-14.3-14.1-14.3s-14.2 6.5-14.2 14.3 6.3 14.3 14.2 14.3c3.1 0 5.9-1 8.3-2.7l-4.1-3.5v-.3l2.9-3.4h.2zM126.1 458.9l.3.3v18.9c0 9.4 4.8 13.6 11.6 13.6s11.6-4.2 11.6-13.6v-18.9l.3-.3h4.3l.3.3v19.9c0 11.8-7 17.8-16.6 17.8-9.5 0-16.5-6-16.5-17.8v-19.9l.3-.3h4.4zM170.2 458.9l.3.3v36.5l-.3.3h-4.3l-.3-.3v-36.5l.3-.3h4.3zM209.6 458.9l.3.3v4.3l-.3.3h-13.2v31.9l-.3.3h-4.3l-.3-.3v-31.9h-13.2l-.3-.3v-4.3l.3-.3h31.3zM239.9 458.9l.3.3v4.3l-.3.3h-17.7V474h12.5l.3.3v4.3l-.3.3h-12.5V491h19.6l.3.3v4.3l-.3.3h-24.2l-.3-.3v-36.5l.3-.3h22.3zM276.8 467.6c-4.1-3.1-7.2-4.5-11.8-4.5-7.7 0-14.2 6.5-14.2 14.3s6.5 14.3 14.2 14.3c4.7 0 7.7-1.4 11.8-4.5l.3.3v5.6c-3.5 2.4-6.7 3.7-12.2 3.7-10.9 0-19.8-8.6-19.8-19.5s9-19.5 19.8-19.5c5.4 0 8.6 1.3 12.2 3.7v5.6l-.3.5zM313.5 458.9l.3.3v4.3l-.3.3h-13.2v31.9l-.3.3h-4.3l-.3-.3v-31.9h-13.2l-.3-.3v-4.3l.3-.3h31.3zM325.9 458.9l.3.3v18.9c0 9.4 4.8 13.6 11.6 13.6s11.6-4.2 11.6-13.6v-18.9l.3-.3h4.3l.3.3v19.9c0 11.8-7 17.8-16.6 17.8-9.5 0-16.5-6-16.5-17.8v-19.9l.3-.3h4.4zM375.8 458.9c7.7 0 13 4.1 13 11.1 0 5.2-2.9 8.6-7.4 10.2l11.3 15.4-.3.3h-5.8l-.3-.3-10.7-14.5h-5.3v14.5l-.3.4h-4.3l-.3-.3v-36.5l.3-.3h10.1zm-5.5 17.3h5.4c4.4 0 7.5-2.1 7.5-6.2s-3-6.2-7.4-6.2h-5.5v12.4zM414.8 458.9l.3.3 15.3 36.5-.3.3h-5l-.3-.3-3.6-9.1H404l-3.6 9.1-.4.3h-4.9l-.3-.3 15.2-36.5.3-.3h4.5zm-8.6 22.7H419l-6.4-15.9-6.4 15.9zM467.2 460.1l.3.3v9.7h9.7l.3.3v4.3l-.3.3h-9.7v9.7l-.3.3h-4.3l-.3-.3V475h-9.7l-.3-.3v-4.3l.3-.3h9.7v-9.7l.3-.3h4.3zM508.8 458.9l.3.3v36.5l-.3.3h-4.3l-.3-.3v-36.5l.3-.3h4.3zM525.2 458.9l.6.3 22.4 28.9v-28.9l.3-.3h4.3l.3.3v36.5l-.3.3H548l-.6-.3-22.4-29v28.9l-.3.3h-4.3l-.3-.3v-36.5l.3-.3h4.8zM592.2 458.9l.3.3v4.3l-.3.3H579v31.9l-.3.3h-4.3l-.3-.3v-31.9h-13.2l-.3-.3v-4.3l.3-.3h31.3zM622.5 458.9l.3.3v4.3l-.3.3h-17.7V474h12.5l.3.3v4.3l-.3.3h-12.5V491h19.6l.3.3v4.3l-.3.3h-24.2l-.3-.3v-36.5l.3-.3h22.3zM643.3 458.9c7.7 0 13 4.1 13 11.1 0 5.2-2.9 8.6-7.4 10.2l11.3 15.4-.3.3h-5.8l-.3-.3-10.7-14.5h-5.3v14.5l-.3.3h-4.3l-.3-.3v-36.5l.3-.3h10.1zm-5.5 17.3h5.4c4.4 0 7.5-2.1 7.5-6.2s-3-6.2-7.4-6.2h-5.5v12.4zM671.3 458.9l.3.3v36.5l-.3.3H667l-.3-.3v-36.5l.3-.3h4.3zM720.4 477.4c0 10.7-8.9 19.5-19.8 19.5s-19.8-8.8-19.8-19.5 8.9-19.5 19.8-19.5 19.8 8.8 19.8 19.5zm-34 0c0 7.9 6.3 14.3 14.2 14.3s14.1-6.5 14.1-14.3-6.3-14.3-14.1-14.3-14.2 6.5-14.2 14.3zM739.8 458.9c7.7 0 13 4.1 13 11.1 0 5.2-2.9 8.6-7.4 10.2l11.3 15.4-.3.3h-5.8l-.3-.3-10.7-14.5h-5.3v14.5l-.3.4h-4.3l-.3-.3v-36.5l.3-.3h10.1zm-5.5 17.3h5.4c4.4 0 7.5-2.1 7.5-6.2s-3-6.2-7.4-6.2h-5.5v12.4zM767.9 458.9l.3.3v36.5l-.3.3h-4.3l-.3-.3v-36.5l.3-.3h4.3zM796.5 467.3c-1.9-2.7-3.8-4.2-6.9-4.2-3.1 0-5.2 1.8-5.2 4.9 0 6.2 17.1 5.9 17.1 17.8 0 6.4-5 11.1-12.5 11.1-5.1 0-10.4-2.9-12.9-8.6l3.6-2.7h.6c2.4 4.6 5.7 6.1 8.7 6.1 4.3 0 6.9-2.4 6.9-5.9 0-7.4-17.1-7.4-17.1-17.8 0-6 4.5-10.1 10.9-10.1 5.1 0 8.7 2.9 10.9 6.7l-3.4 2.7h-.7zM814.3 458.9l.6.3 13.6 17.1 13.6-17.1.6-.3h4.1l.3.3v36.5l-.3.3h-4.3l-.3-.3v-29l-13.4 16.8h-.6l-13.4-16.8v29l-.3.3h-4.3l-.3-.3v-36.5l.3-.3h4.1zM895.9 477.4c0 10.7-8.9 19.5-19.8 19.5s-19.8-8.8-19.8-19.5 8.9-19.5 19.8-19.5 19.8 8.8 19.8 19.5zm-34 0c0 7.9 6.3 14.3 14.2 14.3s14.1-6.5 14.1-14.3-6.3-14.3-14.1-14.3-14.2 6.5-14.2 14.3z"/><g><g id="XMLID_104_"><path id="XMLID_106_" class="st0" d="M3.7 273.7H28V3.7H3.7v270z"/></g><g id="XMLID_97_"><path id="XMLID_99_" class="st0" d="M134.2 374.9h24.2v-270h-24.2v270z"/></g><g id="XMLID_85_"><path id="XMLID_91_" class="st0" d="M466 100.2c-50 0-84.9 36.6-84.9 89.1 0 51.6 35.7 89.1 84.9 89.1 36.8 0 67.2-20.3 80-53.1l-24.6-5.9C512.6 244 492.6 258 466 258c-32.3 0-53.9-21.2-57.9-56.7l-.4-3.5h142.9c.2-2.8.3-5.7.3-8.6 0-52.4-34.9-89-84.9-89zm58.2 78.9H407.8l.4-3.5c4.4-34.5 26-55.1 57.8-55.1 31.7 0 53.3 20.6 57.8 55.1l.4 3.5z"/></g><g id="XMLID_75_"><g id="XMLID_78_"><path id="XMLID_79_" class="st0" d="M68.6 273.7h24.2V104.9H68.6v168.8z"/></g></g><g id="XMLID_52_"><g id="XMLID_55_"><path id="XMLID_60_" class="st0" d="M54.9 57.9l14 13.9 50.3-50.1-6-21.7-58.3 57.9z"/></g></g><g id="XMLID_32_"><g id="XMLID_34_"><path id="XMLID_35_" class="st0" d="M113.2 0l-6.1 21.7 50.3 50.1 14-13.9L113.2 0z"/></g></g><path id="XMLID_26_" class="st0" d="M327.6 3.7v129.2c-16.2-23.7-38.1-32.7-59-32.7-49.1 0-83.3 36.6-83.3 89.1s34.3 89.1 83.3 89.1c20.5 0 42.7-9.3 59-33.6v29h24.2V3.7h-24.2zM270.2 258c-36.2 0-58.6-26.3-58.6-68.8s22.5-68.8 58.6-68.8c35.7 0 57.1 25.7 57.1 68.8S305.9 258 270.2 258z"/><g id="XMLID_14_"><g id="XMLID_16_"><g id="XMLID_17_"><g id="XMLID_18_"><path id="XMLID_19_" class="st0" d="M761 231.3c8.6 28.7 36.1 47.1 70.9 47.1 45.6 0 65.9-25.2 65.9-50.1 0-28.2-17.8-42.6-61.5-49.9-31.7-5.3-46.7-11.3-46.7-31.6 0-19.4 21.7-26.3 42-26.3 21.8 0 38.3 11 43.8 29l21.6-6.9c-7.3-25-33-42.2-63.5-42.2-55 0-67.4 35.3-67.4 47.7 0 36.5 30.7 45 62.2 50.5 25 4.4 45.7 9.8 45.7 31.8 0 17-16.3 27.5-42.6 27.5-23.5 0-41.9-13.3-48.7-35l-21.7 8.4z"/></g></g></g></g><g id="XMLID_2_"><path id="XMLID_6_" class="st0" d="M706.2 273.7h24.2v-89.1c0-56.8-22-84.4-67.4-84.4-21.8 0-45.8 12.2-61.8 35.8l2.8-.5v-30.6h-24.2v168.8H604v-84.4c0-43.1 21.5-68.8 57.4-68.8 39.4 0 44.7 32.4 44.7 64.1v89.1z"/></g></g></svg>